<svg viewBox="0 0 120 120" fill="none" xmlns="http://www.w3.org/2000/svg">
  <defs>
    <linearGradient id="azDarkBg" x1="0" y1="0" x2="120" y2="120" gradientUnits="userSpaceOnUse">
      <stop offset="0%" stopColor="#1e232f" />
      <stop offset="100%" stopColor="#0d1017" />
    </linearGradient>
    <linearGradient id="azSymbolDark" x1="20" y1="20" x2="100" y2="100" gradientUnits="userSpaceOnUse">
      <stop offset="0%" stopColor="#ffffff" />
      <stop offset="100%" stopColor="#f1f5f9" />
    </linearGradient>
    <filter id="azShadow" x="-10%" y="-10%" width="130%" height="130%" filterUnits="userSpaceOnUse">
      <feDropShadow dx="0" dy="2" stdDeviation="2" floodColor="#000000" floodOpacity="0.4" />
    </filter>
  </defs>
  <rect x="3" y="3" width="114" height="114" rx="28" fill="url(#azDarkBg)" stroke="rgba(255, 255, 255, 0.12)" stroke-width="3" />
  <g filter="url(#azShadow)">
    <path d="M 64 24 L 79 46 L 68 46 L 58 31 L 43 53 L 34 53 Z" fill="url(#azSymbolDark)" />
    <path d="M 52 45 L 97 45 L 97 53 L 57 80 L 97 80 L 97 89 L 45 89 L 45 81 L 82 54 L 52 54 Z" fill="url(#azSymbolDark)" />
    <path d="M 33 59 L 43 59 L 55 77 L 46 77 Z" fill="url(#azSymbolDark)" />
    <path d="M 28 67 L 36 67 L 48 85 L 40 85 Z" fill="url(#azSymbolDark)" />
    <path d="M 23 75 L 30 75 L 41 91 L 33 91 Z" fill="url(#azSymbolDark)" />
  </g>
</svg>
